<?xml version="1.0" encoding="utf-8"?>
<!-- Generator: Adobe Illustrator 22.0.1, SVG Export Plug-In . SVG Version: 6.00 Build 0)  -->
<svg version="1.1" id="Слой_1" xmlns="http://www.w3.org/2000/svg" xmlns:xlink="http://www.w3.org/1999/xlink" x="0px" y="0px"
	 viewBox="0 0 300 300" style="enable-background:new 0 0 300 300;" xml:space="preserve">
<style type="text/css">
	.st0{fill:#4987CE;}
</style>
<path class="st0" d="M294.8,268.8l-80.5-80.5c14.3-19.6,22.7-43.7,22.7-69.8C237,53.1,183.9,0,118.5,0S0,53.1,0,118.5
	S53.1,237,118.5,237c26.1,0,50.2-8.4,69.8-22.7l80.5,80.5c7.1,7.1,18.8,7.1,26,0l0,0C302,287.7,302,276,294.8,268.8z M118.5,201
	C72.9,201,36,164.1,36,118.5C36,72.9,72.9,36,118.5,36S201,72.9,201,118.5C201,164.1,164.1,201,118.5,201z"/>
</svg>
