<?xml version="1.0" encoding="utf-8"?>
<!-- Generator: Adobe Illustrator 22.0.1, SVG Export Plug-In . SVG Version: 6.00 Build 0)  -->
<svg version="1.1" id="Слой_1" xmlns="http://www.w3.org/2000/svg" xmlns:xlink="http://www.w3.org/1999/xlink" x="0px" y="0px"
	 viewBox="0 0 300 300" style="enable-background:new 0 0 300 300;" xml:space="preserve">
<style type="text/css">
	.st0{fill:#4987CE;}
</style>
<path class="st0" d="M150,300c-25.4,0-46.9-11.7-46.9-33.3h93.8C196.9,288.3,175.4,300,150,300z M262.4,183.3
	c0,25,37.6,25,37.6,41.7c0,8.3,0,25-39.5,25H37.2C0,250,0,233.3,0,225c0-16.7,37.2-16.7,37.5-41.7v-50c0-66.7,39.3-108.3,93.8-115
	v-1.7c0-10,9.4-16.7,18.8-16.7s18.8,6.7,18.8,16.7v1.7c54.4,6.7,93.7,48.3,93.7,115V183.3z"/>
</svg>
