<?xml version="1.0" encoding="utf-8"?>
<!-- Generator: Adobe Illustrator 22.0.1, SVG Export Plug-In . SVG Version: 6.00 Build 0)  -->
<svg version="1.1" id="str" xmlns="http://www.w3.org/2000/svg" xmlns:xlink="http://www.w3.org/1999/xlink" x="0px" y="0px"
	 viewBox="0 0 300 300" style="enable-background:new 0 0 300 300;" xml:space="preserve">
<style type="text/css">
	.st0{fill:#4987ce;}
	.st1{fill:none;stroke:#4987ce;stroke-width:20;stroke-miterlimit:10;}
</style>
<path id="_x32_2" class="st0" d="M150,20c34.7,0,67.4,13.5,91.9,38.1C266.5,82.6,280,115.3,280,150s-13.5,67.4-38.1,91.9
	C217.4,266.5,184.7,280,150,280s-67.4-13.5-91.9-38.1C33.5,217.4,20,184.7,20,150s13.5-67.4,38.1-91.9C82.6,33.5,115.3,20,150,20
	 M150,0C67.2,0,0,67.2,0,150s67.2,150,150,150s150-67.2,150-150S232.8,0,150,0L150,0z"/>
<path id="_x31_1" class="st0" d="M150,81.5c24,0,43.5,19.5,43.5,43.5S174,168.6,150,168.6S106.5,149,106.5,125S126,81.5,150,81.5
	 M150,61.5c-35.1,0-63.5,28.4-63.5,63.5s28.4,63.5,63.5,63.5s63.5-28.4,63.5-63.5S185.1,61.5,150,61.5L150,61.5z"/>
<path id="_x30_0" class="st1" d="M245.5,240c-52.8-40-138.2-40-191,0"/>
</svg>
